<?xml version="1.0" encoding="utf-8" standalone="no"?>
<!DOCTYPE svg PUBLIC "-//W3C//DTD SVG 1.1//EN"
  "http://www.w3.org/Graphics/SVG/1.1/DTD/svg11.dtd">
<svg height="473.76pt" version="1.1" viewBox="0 0 735.84 473.76" width="735.84pt" xmlns="http://www.w3.org/2000/svg" xmlns:xlink="http://www.w3.org/1999/xlink">
 <metadata>
  <rdf:RDF xmlns:cc="http://creativecommons.org/ns#" xmlns:dc="http://purl.org/dc/elements/1.1/" xmlns:rdf="http://www.w3.org/1999/02/22-rdf-syntax-ns#">
   <cc:Work>
    <dc:type rdf:resource="http://purl.org/dc/dcmitype/StillImage"/>
    <dc:date>2024-10-24T15:54:07.888291</dc:date>
    <dc:format>image/svg+xml</dc:format>
    <dc:creator>
     <cc:Agent>
      <dc:title>Matplotlib v3.4.3, https://matplotlib.org/</dc:title>
     </cc:Agent>
    </dc:creator>
   </cc:Work>
  </rdf:RDF>
 </metadata>
 <defs>
  <style type="text/css">*{stroke-linecap:butt;stroke-linejoin:round;}</style>
 </defs>
 <g id="figure_1">
  <g id="patch_1">
   <path d="M 0 473.76 
L 735.84 473.76 
L 735.84 0 
L 0 0 
z
" style="fill:#ffffff;"/>
  </g>
  <g id="axes_1">
   <g id="patch_2">
    <path d="M 91.98 421.6464 
L 662.256 421.6464 
L 662.256 56.8512 
L 91.98 56.8512 
z
" style="fill:#ffffff;"/>
   </g>
   <g id="matplotlib.axis_1">
    <g id="xtick_1">
     <g id="line2d_1">
      <path clip-path="url(#pef590fdc2e)" d="M 91.98 421.6464 
L 91.98 56.8512 
" style="fill:none;stroke:#b0b0b0;stroke-linecap:square;stroke-width:0.8;"/>
     </g>
     <g id="line2d_2">
      <defs>
       <path d="M 0 0 
L 0 3.5 
" id="m6acc525bf7" style="stroke:#000000;stroke-width:0.8;"/>
      </defs>
      <g>
       <use style="stroke:#000000;stroke-width:0.8;" x="91.98" xlink:href="#m6acc525bf7" y="421.6464"/>
      </g>
     </g>
     <g id="text_1">
      <!-- 0 -->
      <g transform="translate(88.79875 436.244838)scale(0.1 -0.1)">
       <defs>
        <path d="M 2034 4250 
Q 1547 4250 1301 3770 
Q 1056 3291 1056 2328 
Q 1056 1369 1301 889 
Q 1547 409 2034 409 
Q 2525 409 2770 889 
Q 3016 1369 3016 2328 
Q 3016 3291 2770 3770 
Q 2525 4250 2034 4250 
z
M 2034 4750 
Q 2819 4750 3233 4129 
Q 3647 3509 3647 2328 
Q 3647 1150 3233 529 
Q 2819 -91 2034 -91 
Q 1250 -91 836 529 
Q 422 1150 422 2328 
Q 422 3509 836 4129 
Q 1250 4750 2034 4750 
z
" id="DejaVuSans-30" transform="scale(0.015625)"/>
       </defs>
       <use xlink:href="#DejaVuSans-30"/>
      </g>
     </g>
    </g>
    <g id="xtick_2">
     <g id="line2d_3">
      <path clip-path="url(#pef590fdc2e)" d="M 187.026 421.6464 
L 187.026 56.8512 
" style="fill:none;stroke:#b0b0b0;stroke-linecap:square;stroke-width:0.8;"/>
     </g>
     <g id="line2d_4">
      <g>
       <use style="stroke:#000000;stroke-width:0.8;" x="187.026" xlink:href="#m6acc525bf7" y="421.6464"/>
      </g>
     </g>
     <g id="text_2">
      <!-- 2 -->
      <g transform="translate(183.84475 436.244838)scale(0.1 -0.1)">
       <defs>
        <path d="M 1228 531 
L 3431 531 
L 3431 0 
L 469 0 
L 469 531 
Q 828 903 1448 1529 
Q 2069 2156 2228 2338 
Q 2531 2678 2651 2914 
Q 2772 3150 2772 3378 
Q 2772 3750 2511 3984 
Q 2250 4219 1831 4219 
Q 1534 4219 1204 4116 
Q 875 4013 500 3803 
L 500 4441 
Q 881 4594 1212 4672 
Q 1544 4750 1819 4750 
Q 2544 4750 2975 4387 
Q 3406 4025 3406 3419 
Q 3406 3131 3298 2873 
Q 3191 2616 2906 2266 
Q 2828 2175 2409 1742 
Q 1991 1309 1228 531 
z
" id="DejaVuSans-32" transform="scale(0.015625)"/>
       </defs>
       <use xlink:href="#DejaVuSans-32"/>
      </g>
     </g>
    </g>
    <g id="xtick_3">
     <g id="line2d_5">
      <path clip-path="url(#pef590fdc2e)" d="M 282.072 421.6464 
L 282.072 56.8512 
" style="fill:none;stroke:#b0b0b0;stroke-linecap:square;stroke-width:0.8;"/>
     </g>
     <g id="line2d_6">
      <g>
       <use style="stroke:#000000;stroke-width:0.8;" x="282.072" xlink:href="#m6acc525bf7" y="421.6464"/>
      </g>
     </g>
     <g id="text_3">
      <!-- 4 -->
      <g transform="translate(278.89075 436.244838)scale(0.1 -0.1)">
       <defs>
        <path d="M 2419 4116 
L 825 1625 
L 2419 1625 
L 2419 4116 
z
M 2253 4666 
L 3047 4666 
L 3047 1625 
L 3713 1625 
L 3713 1100 
L 3047 1100 
L 3047 0 
L 2419 0 
L 2419 1100 
L 313 1100 
L 313 1709 
L 2253 4666 
z
" id="DejaVuSans-34" transform="scale(0.015625)"/>
       </defs>
       <use xlink:href="#DejaVuSans-34"/>
      </g>
     </g>
    </g>
    <g id="xtick_4">
     <g id="line2d_7">
      <path clip-path="url(#pef590fdc2e)" d="M 377.118 421.6464 
L 377.118 56.8512 
" style="fill:none;stroke:#b0b0b0;stroke-linecap:square;stroke-width:0.8;"/>
     </g>
     <g id="line2d_8">
      <g>
       <use style="stroke:#000000;stroke-width:0.8;" x="377.118" xlink:href="#m6acc525bf7" y="421.6464"/>
      </g>
     </g>
     <g id="text_4">
      <!-- 6 -->
      <g transform="translate(373.93675 436.244838)scale(0.1 -0.1)">
       <defs>
        <path d="M 2113 2584 
Q 1688 2584 1439 2293 
Q 1191 2003 1191 1497 
Q 1191 994 1439 701 
Q 1688 409 2113 409 
Q 2538 409 2786 701 
Q 3034 994 3034 1497 
Q 3034 2003 2786 2293 
Q 2538 2584 2113 2584 
z
M 3366 4563 
L 3366 3988 
Q 3128 4100 2886 4159 
Q 2644 4219 2406 4219 
Q 1781 4219 1451 3797 
Q 1122 3375 1075 2522 
Q 1259 2794 1537 2939 
Q 1816 3084 2150 3084 
Q 2853 3084 3261 2657 
Q 3669 2231 3669 1497 
Q 3669 778 3244 343 
Q 2819 -91 2113 -91 
Q 1303 -91 875 529 
Q 447 1150 447 2328 
Q 447 3434 972 4092 
Q 1497 4750 2381 4750 
Q 2619 4750 2861 4703 
Q 3103 4656 3366 4563 
z
" id="DejaVuSans-36" transform="scale(0.015625)"/>
       </defs>
       <use xlink:href="#DejaVuSans-36"/>
      </g>
     </g>
    </g>
    <g id="xtick_5">
     <g id="line2d_9">
      <path clip-path="url(#pef590fdc2e)" d="M 472.164 421.6464 
L 472.164 56.8512 
" style="fill:none;stroke:#b0b0b0;stroke-linecap:square;stroke-width:0.8;"/>
     </g>
     <g id="line2d_10">
      <g>
       <use style="stroke:#000000;stroke-width:0.8;" x="472.164" xlink:href="#m6acc525bf7" y="421.6464"/>
      </g>
     </g>
     <g id="text_5">
      <!-- 8 -->
      <g transform="translate(468.98275 436.244838)scale(0.1 -0.1)">
       <defs>
        <path d="M 2034 2216 
Q 1584 2216 1326 1975 
Q 1069 1734 1069 1313 
Q 1069 891 1326 650 
Q 1584 409 2034 409 
Q 2484 409 2743 651 
Q 3003 894 3003 1313 
Q 3003 1734 2745 1975 
Q 2488 2216 2034 2216 
z
M 1403 2484 
Q 997 2584 770 2862 
Q 544 3141 544 3541 
Q 544 4100 942 4425 
Q 1341 4750 2034 4750 
Q 2731 4750 3128 4425 
Q 3525 4100 3525 3541 
Q 3525 3141 3298 2862 
Q 3072 2584 2669 2484 
Q 3125 2378 3379 2068 
Q 3634 1759 3634 1313 
Q 3634 634 3220 271 
Q 2806 -91 2034 -91 
Q 1263 -91 848 271 
Q 434 634 434 1313 
Q 434 1759 690 2068 
Q 947 2378 1403 2484 
z
M 1172 3481 
Q 1172 3119 1398 2916 
Q 1625 2713 2034 2713 
Q 2441 2713 2670 2916 
Q 2900 3119 2900 3481 
Q 2900 3844 2670 4047 
Q 2441 4250 2034 4250 
Q 1625 4250 1398 4047 
Q 1172 3844 1172 3481 
z
" id="DejaVuSans-38" transform="scale(0.015625)"/>
       </defs>
       <use xlink:href="#DejaVuSans-38"/>
      </g>
     </g>
    </g>
    <g id="xtick_6">
     <g id="line2d_11">
      <path clip-path="url(#pef590fdc2e)" d="M 567.21 421.6464 
L 567.21 56.8512 
" style="fill:none;stroke:#b0b0b0;stroke-linecap:square;stroke-width:0.8;"/>
     </g>
     <g id="line2d_12">
      <g>
       <use style="stroke:#000000;stroke-width:0.8;" x="567.21" xlink:href="#m6acc525bf7" y="421.6464"/>
      </g>
     </g>
     <g id="text_6">
      <!-- 10 -->
      <g transform="translate(560.8475 436.244838)scale(0.1 -0.1)">
       <defs>
        <path d="M 794 531 
L 1825 531 
L 1825 4091 
L 703 3866 
L 703 4441 
L 1819 4666 
L 2450 4666 
L 2450 531 
L 3481 531 
L 3481 0 
L 794 0 
L 794 531 
z
" id="DejaVuSans-31" transform="scale(0.015625)"/>
       </defs>
       <use xlink:href="#DejaVuSans-31"/>
       <use x="63.623047" xlink:href="#DejaVuSans-30"/>
      </g>
     </g>
    </g>
    <g id="xtick_7">
     <g id="line2d_13">
      <path clip-path="url(#pef590fdc2e)" d="M 662.256 421.6464 
L 662.256 56.8512 
" style="fill:none;stroke:#b0b0b0;stroke-linecap:square;stroke-width:0.8;"/>
     </g>
     <g id="line2d_14">
      <g>
       <use style="stroke:#000000;stroke-width:0.8;" x="662.256" xlink:href="#m6acc525bf7" y="421.6464"/>
      </g>
     </g>
     <g id="text_7">
      <!-- 12 -->
      <g transform="translate(655.8935 436.244838)scale(0.1 -0.1)">
       <use xlink:href="#DejaVuSans-31"/>
       <use x="63.623047" xlink:href="#DejaVuSans-32"/>
      </g>
     </g>
    </g>
    <g id="xtick_8">
     <g id="line2d_15">
      <path clip-path="url(#pef590fdc2e)" d="M 115.7415 421.6464 
L 115.7415 56.8512 
" style="fill:none;stroke:#b0b0b0;stroke-dasharray:2.96,1.28;stroke-dashoffset:0;stroke-width:0.8;"/>
     </g>
     <g id="line2d_16">
      <defs>
       <path d="M 0 0 
L 0 2 
" id="m7b5748e6b2" style="stroke:#000000;stroke-width:0.6;"/>
      </defs>
      <g>
       <use style="stroke:#000000;stroke-width:0.6;" x="115.7415" xlink:href="#m7b5748e6b2" y="421.6464"/>
      </g>
     </g>
    </g>
    <g id="xtick_9">
     <g id="line2d_17">
      <path clip-path="url(#pef590fdc2e)" d="M 139.503 421.6464 
L 139.503 56.8512 
" style="fill:none;stroke:#b0b0b0;stroke-dasharray:2.96,1.28;stroke-dashoffset:0;stroke-width:0.8;"/>
     </g>
     <g id="line2d_18">
      <g>
       <use style="stroke:#000000;stroke-width:0.6;" x="139.503" xlink:href="#m7b5748e6b2" y="421.6464"/>
      </g>
     </g>
    </g>
    <g id="xtick_10">
     <g id="line2d_19">
      <path clip-path="url(#pef590fdc2e)" d="M 163.2645 421.6464 
L 163.2645 56.8512 
" style="fill:none;stroke:#b0b0b0;stroke-dasharray:2.96,1.28;stroke-dashoffset:0;stroke-width:0.8;"/>
     </g>
     <g id="line2d_20">
      <g>
       <use style="stroke:#000000;stroke-width:0.6;" x="163.2645" xlink:href="#m7b5748e6b2" y="421.6464"/>
      </g>
     </g>
    </g>
    <g id="xtick_11">
     <g id="line2d_21">
      <path clip-path="url(#pef590fdc2e)" d="M 210.7875 421.6464 
L 210.7875 56.8512 
" style="fill:none;stroke:#b0b0b0;stroke-dasharray:2.96,1.28;stroke-dashoffset:0;stroke-width:0.8;"/>
     </g>
     <g id="line2d_22">
      <g>
       <use style="stroke:#000000;stroke-width:0.6;" x="210.7875" xlink:href="#m7b5748e6b2" y="421.6464"/>
      </g>
     </g>
    </g>
    <g id="xtick_12">
     <g id="line2d_23">
      <path clip-path="url(#pef590fdc2e)" d="M 234.549 421.6464 
L 234.549 56.8512 
" style="fill:none;stroke:#b0b0b0;stroke-dasharray:2.96,1.28;stroke-dashoffset:0;stroke-width:0.8;"/>
     </g>
     <g id="line2d_24">
      <g>
       <use style="stroke:#000000;stroke-width:0.6;" x="234.549" xlink:href="#m7b5748e6b2" y="421.6464"/>
      </g>
     </g>
    </g>
    <g id="xtick_13">
     <g id="line2d_25">
      <path clip-path="url(#pef590fdc2e)" d="M 258.3105 421.6464 
L 258.3105 56.8512 
" style="fill:none;stroke:#b0b0b0;stroke-dasharray:2.96,1.28;stroke-dashoffset:0;stroke-width:0.8;"/>
     </g>
     <g id="line2d_26">
      <g>
       <use style="stroke:#000000;stroke-width:0.6;" x="258.3105" xlink:href="#m7b5748e6b2" y="421.6464"/>
      </g>
     </g>
    </g>
    <g id="xtick_14">
     <g id="line2d_27">
      <path clip-path="url(#pef590fdc2e)" d="M 305.8335 421.6464 
L 305.8335 56.8512 
" style="fill:none;stroke:#b0b0b0;stroke-dasharray:2.96,1.28;stroke-dashoffset:0;stroke-width:0.8;"/>
     </g>
     <g id="line2d_28">
      <g>
       <use style="stroke:#000000;stroke-width:0.6;" x="305.8335" xlink:href="#m7b5748e6b2" y="421.6464"/>
      </g>
     </g>
    </g>
    <g id="xtick_15">
     <g id="line2d_29">
      <path clip-path="url(#pef590fdc2e)" d="M 329.595 421.6464 
L 329.595 56.8512 
" style="fill:none;stroke:#b0b0b0;stroke-dasharray:2.96,1.28;stroke-dashoffset:0;stroke-width:0.8;"/>
     </g>
     <g id="line2d_30">
      <g>
       <use style="stroke:#000000;stroke-width:0.6;" x="329.595" xlink:href="#m7b5748e6b2" y="421.6464"/>
      </g>
     </g>
    </g>
    <g id="xtick_16">
     <g id="line2d_31">
      <path clip-path="url(#pef590fdc2e)" d="M 353.3565 421.6464 
L 353.3565 56.8512 
" style="fill:none;stroke:#b0b0b0;stroke-dasharray:2.96,1.28;stroke-dashoffset:0;stroke-width:0.8;"/>
     </g>
     <g id="line2d_32">
      <g>
       <use style="stroke:#000000;stroke-width:0.6;" x="353.3565" xlink:href="#m7b5748e6b2" y="421.6464"/>
      </g>
     </g>
    </g>
    <g id="xtick_17">
     <g id="line2d_33">
      <path clip-path="url(#pef590fdc2e)" d="M 400.8795 421.6464 
L 400.8795 56.8512 
" style="fill:none;stroke:#b0b0b0;stroke-dasharray:2.96,1.28;stroke-dashoffset:0;stroke-width:0.8;"/>
     </g>
     <g id="line2d_34">
      <g>
       <use style="stroke:#000000;stroke-width:0.6;" x="400.8795" xlink:href="#m7b5748e6b2" y="421.6464"/>
      </g>
     </g>
    </g>
    <g id="xtick_18">
     <g id="line2d_35">
      <path clip-path="url(#pef590fdc2e)" d="M 424.641 421.6464 
L 424.641 56.8512 
" style="fill:none;stroke:#b0b0b0;stroke-dasharray:2.96,1.28;stroke-dashoffset:0;stroke-width:0.8;"/>
     </g>
     <g id="line2d_36">
      <g>
       <use style="stroke:#000000;stroke-width:0.6;" x="424.641" xlink:href="#m7b5748e6b2" y="421.6464"/>
      </g>
     </g>
    </g>
    <g id="xtick_19">
     <g id="line2d_37">
      <path clip-path="url(#pef590fdc2e)" d="M 448.4025 421.6464 
L 448.4025 56.8512 
" style="fill:none;stroke:#b0b0b0;stroke-dasharray:2.96,1.28;stroke-dashoffset:0;stroke-width:0.8;"/>
     </g>
     <g id="line2d_38">
      <g>
       <use style="stroke:#000000;stroke-width:0.6;" x="448.4025" xlink:href="#m7b5748e6b2" y="421.6464"/>
      </g>
     </g>
    </g>
    <g id="xtick_20">
     <g id="line2d_39">
      <path clip-path="url(#pef590fdc2e)" d="M 495.9255 421.6464 
L 495.9255 56.8512 
" style="fill:none;stroke:#b0b0b0;stroke-dasharray:2.96,1.28;stroke-dashoffset:0;stroke-width:0.8;"/>
     </g>
     <g id="line2d_40">
      <g>
       <use style="stroke:#000000;stroke-width:0.6;" x="495.9255" xlink:href="#m7b5748e6b2" y="421.6464"/>
      </g>
     </g>
    </g>
    <g id="xtick_21">
     <g id="line2d_41">
      <path clip-path="url(#pef590fdc2e)" d="M 519.687 421.6464 
L 519.687 56.8512 
" style="fill:none;stroke:#b0b0b0;stroke-dasharray:2.96,1.28;stroke-dashoffset:0;stroke-width:0.8;"/>
     </g>
     <g id="line2d_42">
      <g>
       <use style="stroke:#000000;stroke-width:0.6;" x="519.687" xlink:href="#m7b5748e6b2" y="421.6464"/>
      </g>
     </g>
    </g>
    <g id="xtick_22">
     <g id="line2d_43">
      <path clip-path="url(#pef590fdc2e)" d="M 543.4485 421.6464 
L 543.4485 56.8512 
" style="fill:none;stroke:#b0b0b0;stroke-dasharray:2.96,1.28;stroke-dashoffset:0;stroke-width:0.8;"/>
     </g>
     <g id="line2d_44">
      <g>
       <use style="stroke:#000000;stroke-width:0.6;" x="543.4485" xlink:href="#m7b5748e6b2" y="421.6464"/>
      </g>
     </g>
    </g>
    <g id="xtick_23">
     <g id="line2d_45">
      <path clip-path="url(#pef590fdc2e)" d="M 590.9715 421.6464 
L 590.9715 56.8512 
" style="fill:none;stroke:#b0b0b0;stroke-dasharray:2.96,1.28;stroke-dashoffset:0;stroke-width:0.8;"/>
     </g>
     <g id="line2d_46">
      <g>
       <use style="stroke:#000000;stroke-width:0.6;" x="590.9715" xlink:href="#m7b5748e6b2" y="421.6464"/>
      </g>
     </g>
    </g>
    <g id="xtick_24">
     <g id="line2d_47">
      <path clip-path="url(#pef590fdc2e)" d="M 614.733 421.6464 
L 614.733 56.8512 
" style="fill:none;stroke:#b0b0b0;stroke-dasharray:2.96,1.28;stroke-dashoffset:0;stroke-width:0.8;"/>
     </g>
     <g id="line2d_48">
      <g>
       <use style="stroke:#000000;stroke-width:0.6;" x="614.733" xlink:href="#m7b5748e6b2" y="421.6464"/>
      </g>
     </g>
    </g>
    <g id="xtick_25">
     <g id="line2d_49">
      <path clip-path="url(#pef590fdc2e)" d="M 638.4945 421.6464 
L 638.4945 56.8512 
" style="fill:none;stroke:#b0b0b0;stroke-dasharray:2.96,1.28;stroke-dashoffset:0;stroke-width:0.8;"/>
     </g>
     <g id="line2d_50">
      <g>
       <use style="stroke:#000000;stroke-width:0.6;" x="638.4945" xlink:href="#m7b5748e6b2" y="421.6464"/>
      </g>
     </g>
    </g>
    <g id="text_8">
     <!-- Время, с -->
     <g transform="translate(354.729719 449.922962)scale(0.1 -0.1)">
      <defs>
       <path d="M 1259 2228 
L 1259 519 
L 2272 519 
Q 2781 519 3026 730 
Q 3272 941 3272 1375 
Q 3272 1813 3026 2020 
Q 2781 2228 2272 2228 
L 1259 2228 
z
M 1259 4147 
L 1259 2741 
L 2194 2741 
Q 2656 2741 2882 2914 
Q 3109 3088 3109 3444 
Q 3109 3797 2882 3972 
Q 2656 4147 2194 4147 
L 1259 4147 
z
M 628 4666 
L 2241 4666 
Q 2963 4666 3353 4366 
Q 3744 4066 3744 3513 
Q 3744 3084 3544 2831 
Q 3344 2578 2956 2516 
Q 3422 2416 3680 2098 
Q 3938 1781 3938 1306 
Q 3938 681 3513 340 
Q 3088 0 2303 0 
L 628 0 
L 628 4666 
z
" id="DejaVuSans-412" transform="scale(0.015625)"/>
       <path d="M 1159 525 
L 1159 -1331 
L 581 -1331 
L 581 3500 
L 1159 3500 
L 1159 2969 
Q 1341 3281 1617 3432 
Q 1894 3584 2278 3584 
Q 2916 3584 3314 3078 
Q 3713 2572 3713 1747 
Q 3713 922 3314 415 
Q 2916 -91 2278 -91 
Q 1894 -91 1617 61 
Q 1341 213 1159 525 
z
M 3116 1747 
Q 3116 2381 2855 2742 
Q 2594 3103 2138 3103 
Q 1681 3103 1420 2742 
Q 1159 2381 1159 1747 
Q 1159 1113 1420 752 
Q 1681 391 2138 391 
Q 2594 391 2855 752 
Q 3116 1113 3116 1747 
z
" id="DejaVuSans-440" transform="scale(0.015625)"/>
       <path d="M 3597 1894 
L 3597 1613 
L 953 1613 
Q 991 1019 1311 708 
Q 1631 397 2203 397 
Q 2534 397 2845 478 
Q 3156 559 3463 722 
L 3463 178 
Q 3153 47 2828 -22 
Q 2503 -91 2169 -91 
Q 1331 -91 842 396 
Q 353 884 353 1716 
Q 353 2575 817 3079 
Q 1281 3584 2069 3584 
Q 2775 3584 3186 3129 
Q 3597 2675 3597 1894 
z
M 3022 2063 
Q 3016 2534 2758 2815 
Q 2500 3097 2075 3097 
Q 1594 3097 1305 2825 
Q 1016 2553 972 2059 
L 3022 2063 
z
" id="DejaVuSans-435" transform="scale(0.015625)"/>
       <path d="M 581 3500 
L 1422 3500 
L 2416 1156 
L 3413 3500 
L 4247 3500 
L 4247 0 
L 3669 0 
L 3669 2950 
L 2703 672 
L 2128 672 
L 1159 2950 
L 1159 0 
L 581 0 
L 581 3500 
z
" id="DejaVuSans-43c" transform="scale(0.015625)"/>
       <path d="M 1181 2491 
Q 1181 2231 1381 2084 
Q 1581 1938 1953 1938 
L 2728 1938 
L 2728 3041 
L 1953 3041 
Q 1581 3041 1381 2897 
Q 1181 2753 1181 2491 
z
M 363 0 
L 1431 1534 
Q 1069 1616 828 1830 
Q 588 2044 588 2491 
Q 588 2997 923 3248 
Q 1259 3500 1938 3500 
L 3306 3500 
L 3306 0 
L 2728 0 
L 2728 1478 
L 2013 1478 
L 981 0 
L 363 0 
z
" id="DejaVuSans-44f" transform="scale(0.015625)"/>
       <path d="M 750 794 
L 1409 794 
L 1409 256 
L 897 -744 
L 494 -744 
L 750 256 
L 750 794 
z
" id="DejaVuSans-2c" transform="scale(0.015625)"/>
       <path id="DejaVuSans-20" transform="scale(0.015625)"/>
       <path d="M 3122 3366 
L 3122 2828 
Q 2878 2963 2633 3030 
Q 2388 3097 2138 3097 
Q 1578 3097 1268 2742 
Q 959 2388 959 1747 
Q 959 1106 1268 751 
Q 1578 397 2138 397 
Q 2388 397 2633 464 
Q 2878 531 3122 666 
L 3122 134 
Q 2881 22 2623 -34 
Q 2366 -91 2075 -91 
Q 1284 -91 818 406 
Q 353 903 353 1747 
Q 353 2603 823 3093 
Q 1294 3584 2113 3584 
Q 2378 3584 2631 3529 
Q 2884 3475 3122 3366 
z
" id="DejaVuSans-441" transform="scale(0.015625)"/>
      </defs>
      <use xlink:href="#DejaVuSans-412"/>
      <use x="68.603516" xlink:href="#DejaVuSans-440"/>
      <use x="132.080078" xlink:href="#DejaVuSans-435"/>
      <use x="193.603516" xlink:href="#DejaVuSans-43c"/>
      <use x="269.042969" xlink:href="#DejaVuSans-44f"/>
      <use x="329.199219" xlink:href="#DejaVuSans-2c"/>
      <use x="360.986328" xlink:href="#DejaVuSans-20"/>
      <use x="392.773438" xlink:href="#DejaVuSans-441"/>
     </g>
    </g>
   </g>
   <g id="matplotlib.axis_2">
    <g id="ytick_1">
     <g id="line2d_51">
      <path clip-path="url(#pef590fdc2e)" d="M 91.98 421.6464 
L 662.256 421.6464 
" style="fill:none;stroke:#b0b0b0;stroke-linecap:square;stroke-width:0.8;"/>
     </g>
     <g id="line2d_52">
      <defs>
       <path d="M 0 0 
L -3.5 0 
" id="mafde0ed05b" style="stroke:#000000;stroke-width:0.8;"/>
      </defs>
      <g>
       <use style="stroke:#000000;stroke-width:0.8;" x="91.98" xlink:href="#mafde0ed05b" y="421.6464"/>
      </g>
     </g>
     <g id="text_9">
      <!-- 0.0 -->
      <g transform="translate(69.076875 425.445619)scale(0.1 -0.1)">
       <defs>
        <path d="M 684 794 
L 1344 794 
L 1344 0 
L 684 0 
L 684 794 
z
" id="DejaVuSans-2e" transform="scale(0.015625)"/>
       </defs>
       <use xlink:href="#DejaVuSans-30"/>
       <use x="63.623047" xlink:href="#DejaVuSans-2e"/>
       <use x="95.410156" xlink:href="#DejaVuSans-30"/>
      </g>
     </g>
    </g>
    <g id="ytick_2">
     <g id="line2d_53">
      <path clip-path="url(#pef590fdc2e)" d="M 91.98 358.750676 
L 662.256 358.750676 
" style="fill:none;stroke:#b0b0b0;stroke-linecap:square;stroke-width:0.8;"/>
     </g>
     <g id="line2d_54">
      <g>
       <use style="stroke:#000000;stroke-width:0.8;" x="91.98" xlink:href="#mafde0ed05b" y="358.750676"/>
      </g>
     </g>
     <g id="text_10">
      <!-- 0.5 -->
      <g transform="translate(69.076875 362.549895)scale(0.1 -0.1)">
       <defs>
        <path d="M 691 4666 
L 3169 4666 
L 3169 4134 
L 1269 4134 
L 1269 2991 
Q 1406 3038 1543 3061 
Q 1681 3084 1819 3084 
Q 2600 3084 3056 2656 
Q 3513 2228 3513 1497 
Q 3513 744 3044 326 
Q 2575 -91 1722 -91 
Q 1428 -91 1123 -41 
Q 819 9 494 109 
L 494 744 
Q 775 591 1075 516 
Q 1375 441 1709 441 
Q 2250 441 2565 725 
Q 2881 1009 2881 1497 
Q 2881 1984 2565 2268 
Q 2250 2553 1709 2553 
Q 1456 2553 1204 2497 
Q 953 2441 691 2322 
L 691 4666 
z
" id="DejaVuSans-35" transform="scale(0.015625)"/>
       </defs>
       <use xlink:href="#DejaVuSans-30"/>
       <use x="63.623047" xlink:href="#DejaVuSans-2e"/>
       <use x="95.410156" xlink:href="#DejaVuSans-35"/>
      </g>
     </g>
    </g>
    <g id="ytick_3">
     <g id="line2d_55">
      <path clip-path="url(#pef590fdc2e)" d="M 91.98 295.854952 
L 662.256 295.854952 
" style="fill:none;stroke:#b0b0b0;stroke-linecap:square;stroke-width:0.8;"/>
     </g>
     <g id="line2d_56">
      <g>
       <use style="stroke:#000000;stroke-width:0.8;" x="91.98" xlink:href="#mafde0ed05b" y="295.854952"/>
      </g>
     </g>
     <g id="text_11">
      <!-- 1.0 -->
      <g transform="translate(69.076875 299.65417)scale(0.1 -0.1)">
       <use xlink:href="#DejaVuSans-31"/>
       <use x="63.623047" xlink:href="#DejaVuSans-2e"/>
       <use x="95.410156" xlink:href="#DejaVuSans-30"/>
      </g>
     </g>
    </g>
    <g id="ytick_4">
     <g id="line2d_57">
      <path clip-path="url(#pef590fdc2e)" d="M 91.98 232.959228 
L 662.256 232.959228 
" style="fill:none;stroke:#b0b0b0;stroke-linecap:square;stroke-width:0.8;"/>
     </g>
     <g id="line2d_58">
      <g>
       <use style="stroke:#000000;stroke-width:0.8;" x="91.98" xlink:href="#mafde0ed05b" y="232.959228"/>
      </g>
     </g>
     <g id="text_12">
      <!-- 1.5 -->
      <g transform="translate(69.076875 236.758446)scale(0.1 -0.1)">
       <use xlink:href="#DejaVuSans-31"/>
       <use x="63.623047" xlink:href="#DejaVuSans-2e"/>
       <use x="95.410156" xlink:href="#DejaVuSans-35"/>
      </g>
     </g>
    </g>
    <g id="ytick_5">
     <g id="line2d_59">
      <path clip-path="url(#pef590fdc2e)" d="M 91.98 170.063503 
L 662.256 170.063503 
" style="fill:none;stroke:#b0b0b0;stroke-linecap:square;stroke-width:0.8;"/>
     </g>
     <g id="line2d_60">
      <g>
       <use style="stroke:#000000;stroke-width:0.8;" x="91.98" xlink:href="#mafde0ed05b" y="170.063503"/>
      </g>
     </g>
     <g id="text_13">
      <!-- 2.0 -->
      <g transform="translate(69.076875 173.862722)scale(0.1 -0.1)">
       <use xlink:href="#DejaVuSans-32"/>
       <use x="63.623047" xlink:href="#DejaVuSans-2e"/>
       <use x="95.410156" xlink:href="#DejaVuSans-30"/>
      </g>
     </g>
    </g>
    <g id="ytick_6">
     <g id="line2d_61">
      <path clip-path="url(#pef590fdc2e)" d="M 91.98 107.167779 
L 662.256 107.167779 
" style="fill:none;stroke:#b0b0b0;stroke-linecap:square;stroke-width:0.8;"/>
     </g>
     <g id="line2d_62">
      <g>
       <use style="stroke:#000000;stroke-width:0.8;" x="91.98" xlink:href="#mafde0ed05b" y="107.167779"/>
      </g>
     </g>
     <g id="text_14">
      <!-- 2.5 -->
      <g transform="translate(69.076875 110.966998)scale(0.1 -0.1)">
       <use xlink:href="#DejaVuSans-32"/>
       <use x="63.623047" xlink:href="#DejaVuSans-2e"/>
       <use x="95.410156" xlink:href="#DejaVuSans-35"/>
      </g>
     </g>
    </g>
    <g id="ytick_7">
     <g id="line2d_63">
      <path clip-path="url(#pef590fdc2e)" d="M 91.98 409.067255 
L 662.256 409.067255 
" style="fill:none;stroke:#b0b0b0;stroke-dasharray:2.96,1.28;stroke-dashoffset:0;stroke-width:0.8;"/>
     </g>
     <g id="line2d_64">
      <defs>
       <path d="M 0 0 
L -2 0 
" id="m834581b196" style="stroke:#000000;stroke-width:0.6;"/>
      </defs>
      <g>
       <use style="stroke:#000000;stroke-width:0.6;" x="91.98" xlink:href="#m834581b196" y="409.067255"/>
      </g>
     </g>
    </g>
    <g id="ytick_8">
     <g id="line2d_65">
      <path clip-path="url(#pef590fdc2e)" d="M 91.98 396.48811 
L 662.256 396.48811 
" style="fill:none;stroke:#b0b0b0;stroke-dasharray:2.96,1.28;stroke-dashoffset:0;stroke-width:0.8;"/>
     </g>
     <g id="line2d_66">
      <g>
       <use style="stroke:#000000;stroke-width:0.6;" x="91.98" xlink:href="#m834581b196" y="396.48811"/>
      </g>
     </g>
    </g>
    <g id="ytick_9">
     <g id="line2d_67">
      <path clip-path="url(#pef590fdc2e)" d="M 91.98 383.908966 
L 662.256 383.908966 
" style="fill:none;stroke:#b0b0b0;stroke-dasharray:2.96,1.28;stroke-dashoffset:0;stroke-width:0.8;"/>
     </g>
     <g id="line2d_68">
      <g>
       <use style="stroke:#000000;stroke-width:0.6;" x="91.98" xlink:href="#m834581b196" y="383.908966"/>
      </g>
     </g>
    </g>
    <g id="ytick_10">
     <g id="line2d_69">
      <path clip-path="url(#pef590fdc2e)" d="M 91.98 371.329821 
L 662.256 371.329821 
" style="fill:none;stroke:#b0b0b0;stroke-dasharray:2.96,1.28;stroke-dashoffset:0;stroke-width:0.8;"/>
     </g>
     <g id="line2d_70">
      <g>
       <use style="stroke:#000000;stroke-width:0.6;" x="91.98" xlink:href="#m834581b196" y="371.329821"/>
      </g>
     </g>
    </g>
    <g id="ytick_11">
     <g id="line2d_71">
      <path clip-path="url(#pef590fdc2e)" d="M 91.98 346.171531 
L 662.256 346.171531 
" style="fill:none;stroke:#b0b0b0;stroke-dasharray:2.96,1.28;stroke-dashoffset:0;stroke-width:0.8;"/>
     </g>
     <g id="line2d_72">
      <g>
       <use style="stroke:#000000;stroke-width:0.6;" x="91.98" xlink:href="#m834581b196" y="346.171531"/>
      </g>
     </g>
    </g>
    <g id="ytick_12">
     <g id="line2d_73">
      <path clip-path="url(#pef590fdc2e)" d="M 91.98 333.592386 
L 662.256 333.592386 
" style="fill:none;stroke:#b0b0b0;stroke-dasharray:2.96,1.28;stroke-dashoffset:0;stroke-width:0.8;"/>
     </g>
     <g id="line2d_74">
      <g>
       <use style="stroke:#000000;stroke-width:0.6;" x="91.98" xlink:href="#m834581b196" y="333.592386"/>
      </g>
     </g>
    </g>
    <g id="ytick_13">
     <g id="line2d_75">
      <path clip-path="url(#pef590fdc2e)" d="M 91.98 321.013241 
L 662.256 321.013241 
" style="fill:none;stroke:#b0b0b0;stroke-dasharray:2.96,1.28;stroke-dashoffset:0;stroke-width:0.8;"/>
     </g>
     <g id="line2d_76">
      <g>
       <use style="stroke:#000000;stroke-width:0.6;" x="91.98" xlink:href="#m834581b196" y="321.013241"/>
      </g>
     </g>
    </g>
    <g id="ytick_14">
     <g id="line2d_77">
      <path clip-path="url(#pef590fdc2e)" d="M 91.98 308.434097 
L 662.256 308.434097 
" style="fill:none;stroke:#b0b0b0;stroke-dasharray:2.96,1.28;stroke-dashoffset:0;stroke-width:0.8;"/>
     </g>
     <g id="line2d_78">
      <g>
       <use style="stroke:#000000;stroke-width:0.6;" x="91.98" xlink:href="#m834581b196" y="308.434097"/>
      </g>
     </g>
    </g>
    <g id="ytick_15">
     <g id="line2d_79">
      <path clip-path="url(#pef590fdc2e)" d="M 91.98 283.275807 
L 662.256 283.275807 
" style="fill:none;stroke:#b0b0b0;stroke-dasharray:2.96,1.28;stroke-dashoffset:0;stroke-width:0.8;"/>
     </g>
     <g id="line2d_80">
      <g>
       <use style="stroke:#000000;stroke-width:0.6;" x="91.98" xlink:href="#m834581b196" y="283.275807"/>
      </g>
     </g>
    </g>
    <g id="ytick_16">
     <g id="line2d_81">
      <path clip-path="url(#pef590fdc2e)" d="M 91.98 270.696662 
L 662.256 270.696662 
" style="fill:none;stroke:#b0b0b0;stroke-dasharray:2.96,1.28;stroke-dashoffset:0;stroke-width:0.8;"/>
     </g>
     <g id="line2d_82">
      <g>
       <use style="stroke:#000000;stroke-width:0.6;" x="91.98" xlink:href="#m834581b196" y="270.696662"/>
      </g>
     </g>
    </g>
    <g id="ytick_17">
     <g id="line2d_83">
      <path clip-path="url(#pef590fdc2e)" d="M 91.98 258.117517 
L 662.256 258.117517 
" style="fill:none;stroke:#b0b0b0;stroke-dasharray:2.96,1.28;stroke-dashoffset:0;stroke-width:0.8;"/>
     </g>
     <g id="line2d_84">
      <g>
       <use style="stroke:#000000;stroke-width:0.6;" x="91.98" xlink:href="#m834581b196" y="258.117517"/>
      </g>
     </g>
    </g>
    <g id="ytick_18">
     <g id="line2d_85">
      <path clip-path="url(#pef590fdc2e)" d="M 91.98 245.538372 
L 662.256 245.538372 
" style="fill:none;stroke:#b0b0b0;stroke-dasharray:2.96,1.28;stroke-dashoffset:0;stroke-width:0.8;"/>
     </g>
     <g id="line2d_86">
      <g>
       <use style="stroke:#000000;stroke-width:0.6;" x="91.98" xlink:href="#m834581b196" y="245.538372"/>
      </g>
     </g>
    </g>
    <g id="ytick_19">
     <g id="line2d_87">
      <path clip-path="url(#pef590fdc2e)" d="M 91.98 220.380083 
L 662.256 220.380083 
" style="fill:none;stroke:#b0b0b0;stroke-dasharray:2.96,1.28;stroke-dashoffset:0;stroke-width:0.8;"/>
     </g>
     <g id="line2d_88">
      <g>
       <use style="stroke:#000000;stroke-width:0.6;" x="91.98" xlink:href="#m834581b196" y="220.380083"/>
      </g>
     </g>
    </g>
    <g id="ytick_20">
     <g id="line2d_89">
      <path clip-path="url(#pef590fdc2e)" d="M 91.98 207.800938 
L 662.256 207.800938 
" style="fill:none;stroke:#b0b0b0;stroke-dasharray:2.96,1.28;stroke-dashoffset:0;stroke-width:0.8;"/>
     </g>
     <g id="line2d_90">
      <g>
       <use style="stroke:#000000;stroke-width:0.6;" x="91.98" xlink:href="#m834581b196" y="207.800938"/>
      </g>
     </g>
    </g>
    <g id="ytick_21">
     <g id="line2d_91">
      <path clip-path="url(#pef590fdc2e)" d="M 91.98 195.221793 
L 662.256 195.221793 
" style="fill:none;stroke:#b0b0b0;stroke-dasharray:2.96,1.28;stroke-dashoffset:0;stroke-width:0.8;"/>
     </g>
     <g id="line2d_92">
      <g>
       <use style="stroke:#000000;stroke-width:0.6;" x="91.98" xlink:href="#m834581b196" y="195.221793"/>
      </g>
     </g>
    </g>
    <g id="ytick_22">
     <g id="line2d_93">
      <path clip-path="url(#pef590fdc2e)" d="M 91.98 182.642648 
L 662.256 182.642648 
" style="fill:none;stroke:#b0b0b0;stroke-dasharray:2.96,1.28;stroke-dashoffset:0;stroke-width:0.8;"/>
     </g>
     <g id="line2d_94">
      <g>
       <use style="stroke:#000000;stroke-width:0.6;" x="91.98" xlink:href="#m834581b196" y="182.642648"/>
      </g>
     </g>
    </g>
    <g id="ytick_23">
     <g id="line2d_95">
      <path clip-path="url(#pef590fdc2e)" d="M 91.98 157.484359 
L 662.256 157.484359 
" style="fill:none;stroke:#b0b0b0;stroke-dasharray:2.96,1.28;stroke-dashoffset:0;stroke-width:0.8;"/>
     </g>
     <g id="line2d_96">
      <g>
       <use style="stroke:#000000;stroke-width:0.6;" x="91.98" xlink:href="#m834581b196" y="157.484359"/>
      </g>
     </g>
    </g>
    <g id="ytick_24">
     <g id="line2d_97">
      <path clip-path="url(#pef590fdc2e)" d="M 91.98 144.905214 
L 662.256 144.905214 
" style="fill:none;stroke:#b0b0b0;stroke-dasharray:2.96,1.28;stroke-dashoffset:0;stroke-width:0.8;"/>
     </g>
     <g id="line2d_98">
      <g>
       <use style="stroke:#000000;stroke-width:0.6;" x="91.98" xlink:href="#m834581b196" y="144.905214"/>
      </g>
     </g>
    </g>
    <g id="ytick_25">
     <g id="line2d_99">
      <path clip-path="url(#pef590fdc2e)" d="M 91.98 132.326069 
L 662.256 132.326069 
" style="fill:none;stroke:#b0b0b0;stroke-dasharray:2.96,1.28;stroke-dashoffset:0;stroke-width:0.8;"/>
     </g>
     <g id="line2d_100">
      <g>
       <use style="stroke:#000000;stroke-width:0.6;" x="91.98" xlink:href="#m834581b196" y="132.326069"/>
      </g>
     </g>
    </g>
    <g id="ytick_26">
     <g id="line2d_101">
      <path clip-path="url(#pef590fdc2e)" d="M 91.98 119.746924 
L 662.256 119.746924 
" style="fill:none;stroke:#b0b0b0;stroke-dasharray:2.96,1.28;stroke-dashoffset:0;stroke-width:0.8;"/>
     </g>
     <g id="line2d_102">
      <g>
       <use style="stroke:#000000;stroke-width:0.6;" x="91.98" xlink:href="#m834581b196" y="119.746924"/>
      </g>
     </g>
    </g>
    <g id="ytick_27">
     <g id="line2d_103">
      <path clip-path="url(#pef590fdc2e)" d="M 91.98 94.588634 
L 662.256 94.588634 
" style="fill:none;stroke:#b0b0b0;stroke-dasharray:2.96,1.28;stroke-dashoffset:0;stroke-width:0.8;"/>
     </g>
     <g id="line2d_104">
      <g>
       <use style="stroke:#000000;stroke-width:0.6;" x="91.98" xlink:href="#m834581b196" y="94.588634"/>
      </g>
     </g>
    </g>
    <g id="ytick_28">
     <g id="line2d_105">
      <path clip-path="url(#pef590fdc2e)" d="M 91.98 82.00949 
L 662.256 82.00949 
" style="fill:none;stroke:#b0b0b0;stroke-dasharray:2.96,1.28;stroke-dashoffset:0;stroke-width:0.8;"/>
     </g>
     <g id="line2d_106">
      <g>
       <use style="stroke:#000000;stroke-width:0.6;" x="91.98" xlink:href="#m834581b196" y="82.00949"/>
      </g>
     </g>
    </g>
    <g id="ytick_29">
     <g id="line2d_107">
      <path clip-path="url(#pef590fdc2e)" d="M 91.98 69.430345 
L 662.256 69.430345 
" style="fill:none;stroke:#b0b0b0;stroke-dasharray:2.96,1.28;stroke-dashoffset:0;stroke-width:0.8;"/>
     </g>
     <g id="line2d_108">
      <g>
       <use style="stroke:#000000;stroke-width:0.6;" x="91.98" xlink:href="#m834581b196" y="69.430345"/>
      </g>
     </g>
    </g>
    <g id="text_15">
     <!-- Напряжение, В -->
     <g transform="translate(62.997187 279.308175)rotate(-90)scale(0.1 -0.1)">
      <defs>
       <path d="M 628 4666 
L 1259 4666 
L 1259 2753 
L 3553 2753 
L 3553 4666 
L 4184 4666 
L 4184 0 
L 3553 0 
L 3553 2222 
L 1259 2222 
L 1259 0 
L 628 0 
L 628 4666 
z
" id="DejaVuSans-41d" transform="scale(0.015625)"/>
       <path d="M 2194 1759 
Q 1497 1759 1228 1600 
Q 959 1441 959 1056 
Q 959 750 1161 570 
Q 1363 391 1709 391 
Q 2188 391 2477 730 
Q 2766 1069 2766 1631 
L 2766 1759 
L 2194 1759 
z
M 3341 1997 
L 3341 0 
L 2766 0 
L 2766 531 
Q 2569 213 2275 61 
Q 1981 -91 1556 -91 
Q 1019 -91 701 211 
Q 384 513 384 1019 
Q 384 1609 779 1909 
Q 1175 2209 1959 2209 
L 2766 2209 
L 2766 2266 
Q 2766 2663 2505 2880 
Q 2244 3097 1772 3097 
Q 1472 3097 1187 3025 
Q 903 2953 641 2809 
L 641 3341 
Q 956 3463 1253 3523 
Q 1550 3584 1831 3584 
Q 2591 3584 2966 3190 
Q 3341 2797 3341 1997 
z
" id="DejaVuSans-430" transform="scale(0.015625)"/>
       <path d="M 3603 3500 
L 3603 0 
L 3025 0 
L 3025 3041 
L 1159 3041 
L 1159 0 
L 581 0 
L 581 3500 
L 3603 3500 
z
" id="DejaVuSans-43f" transform="scale(0.015625)"/>
       <path d="M 2597 3500 
L 3169 3500 
L 3169 1856 
L 4697 3500 
L 5366 3500 
L 4109 2153 
L 5547 0 
L 4931 0 
L 3753 1769 
L 3169 1141 
L 3169 0 
L 2597 0 
L 2597 1141 
L 2013 1769 
L 834 0 
L 219 0 
L 1656 2153 
L 400 3500 
L 1069 3500 
L 2597 1856 
L 2597 3500 
z
" id="DejaVuSans-436" transform="scale(0.015625)"/>
       <path d="M 581 3500 
L 1159 3500 
L 1159 2072 
L 3025 2072 
L 3025 3500 
L 3603 3500 
L 3603 0 
L 3025 0 
L 3025 1613 
L 1159 1613 
L 1159 0 
L 581 0 
L 581 3500 
z
" id="DejaVuSans-43d" transform="scale(0.015625)"/>
       <path d="M 3578 3500 
L 3578 0 
L 3006 0 
L 3006 2809 
L 1319 0 
L 581 0 
L 581 3500 
L 1153 3500 
L 1153 697 
L 2838 3500 
L 3578 3500 
z
" id="DejaVuSans-438" transform="scale(0.015625)"/>
      </defs>
      <use xlink:href="#DejaVuSans-41d"/>
      <use x="75.195312" xlink:href="#DejaVuSans-430"/>
      <use x="136.474609" xlink:href="#DejaVuSans-43f"/>
      <use x="201.855469" xlink:href="#DejaVuSans-440"/>
      <use x="265.332031" xlink:href="#DejaVuSans-44f"/>
      <use x="325.488281" xlink:href="#DejaVuSans-436"/>
      <use x="415.576172" xlink:href="#DejaVuSans-435"/>
      <use x="477.099609" xlink:href="#DejaVuSans-43d"/>
      <use x="542.480469" xlink:href="#DejaVuSans-438"/>
      <use x="607.470703" xlink:href="#DejaVuSans-435"/>
      <use x="668.994141" xlink:href="#DejaVuSans-2c"/>
      <use x="700.78125" xlink:href="#DejaVuSans-20"/>
      <use x="732.568359" xlink:href="#DejaVuSans-412"/>
     </g>
    </g>
   </g>
   <g id="line2d_109">
    <path clip-path="url(#pef590fdc2e)" d="M 91.98 420.262694 
L 92.616808 414.72787 
L 94.527233 406.425635 
L 95.164041 400.890811 
L 96.437657 395.355987 
L 97.074466 389.821164 
L 97.711274 389.821164 
L 98.348082 384.28634 
L 98.98489 384.28634 
L 99.621698 378.751516 
L 100.258507 378.751516 
L 100.895315 370.449281 
L 109.173821 334.472926 
L 109.81063 334.472926 
L 110.447438 328.938103 
L 112.994671 317.868455 
L 113.631479 317.868455 
L 114.268287 312.333631 
L 114.905095 312.333631 
L 119.999561 290.194337 
L 120.636369 290.194337 
L 123.183602 279.124689 
L 123.82041 279.124689 
L 126.367643 268.055042 
L 127.004451 268.055042 
L 128.278067 262.520218 
L 128.914876 262.520218 
L 130.188492 256.985394 
L 130.8253 256.985394 
L 132.098917 251.45057 
L 132.735725 251.45057 
L 134.009341 245.915747 
L 135.282958 245.915747 
L 135.919766 240.380923 
L 136.556574 240.380923 
L 137.193382 237.613511 
L 137.83019 237.613511 
L 139.103807 232.078687 
L 139.740615 232.078687 
L 140.377423 229.311276 
L 141.014231 229.311276 
L 142.287848 223.776452 
L 143.561464 223.776452 
L 144.835081 218.241628 
L 146.108697 218.241628 
L 147.382313 212.706804 
L 148.019122 212.706804 
L 148.65593 209.939393 
L 149.292738 209.939393 
L 149.929546 207.171981 
L 150.566354 207.171981 
L 151.203163 204.404569 
L 151.839971 204.404569 
L 152.476779 201.637157 
L 154.387204 201.637157 
L 155.024012 196.102333 
L 156.297628 196.102333 
L 156.934436 193.334921 
L 157.571245 193.334921 
L 158.208053 190.56751 
L 159.481669 190.56751 
L 160.118477 187.800098 
L 160.755286 187.800098 
L 161.392094 185.032686 
L 162.028902 185.032686 
L 162.66571 182.265274 
L 164.576135 182.265274 
L 165.849751 176.73045 
L 167.123368 176.73045 
L 167.760176 173.963038 
L 169.033792 173.963038 
L 169.6706 171.195626 
L 170.307409 171.195626 
L 170.944217 168.428215 
L 172.854641 168.428215 
L 173.49145 165.660803 
L 174.128258 165.660803 
L 174.765066 162.893391 
L 176.038682 162.893391 
L 176.675491 160.125979 
L 178.585915 160.125979 
L 179.859532 154.591155 
L 183.680381 154.591155 
L 184.953997 149.056332 
L 187.50123 149.056332 
L 188.138038 146.28892 
L 190.048463 146.28892 
L 190.685271 143.521508 
L 191.958887 143.521508 
L 192.595696 140.754096 
L 193.869312 140.754096 
L 194.50612 137.986684 
L 197.053353 137.986684 
L 197.690161 135.219272 
L 200.237394 135.219272 
L 200.874202 132.45186 
L 203.421435 132.45186 
L 204.058243 129.684449 
L 206.605476 129.684449 
L 207.242284 126.917037 
L 208.515901 126.917037 
L 209.152709 124.149625 
L 209.789517 126.917037 
L 210.426325 124.149625 
L 212.33675 124.149625 
L 212.973558 121.382213 
L 217.431215 121.382213 
L 218.068024 118.614801 
L 221.252065 118.614801 
L 221.888873 115.847389 
L 225.072914 115.847389 
L 225.709722 113.079977 
L 228.256955 113.079977 
L 228.893763 110.312566 
L 235.898653 110.312566 
L 236.535461 107.545154 
L 241.629927 107.545154 
L 242.266735 104.777742 
L 242.903543 107.545154 
L 243.540352 104.777742 
L 246.724393 104.777742 
L 247.361201 102.01033 
L 247.998009 104.777742 
L 248.634817 102.01033 
L 254.366091 102.01033 
L 255.002899 99.242918 
L 260.734173 99.242918 
L 261.370981 96.475506 
L 267.102255 96.475506 
L 267.739063 93.708094 
L 268.375871 96.475506 
L 269.01268 96.475506 
L 269.649488 93.708094 
L 275.380762 93.708094 
L 276.01757 90.940682 
L 276.654378 93.708094 
L 277.291186 93.708094 
L 277.927994 90.940682 
L 278.564803 93.708094 
L 279.201611 93.708094 
L 279.838419 90.940682 
L 284.932885 90.940682 
L 285.569693 88.173271 
L 286.206501 90.940682 
L 286.843309 90.940682 
L 287.480117 88.173271 
L 288.116926 88.173271 
L 288.753734 90.940682 
L 290.664158 90.940682 
L 291.300967 88.173271 
L 303.400322 88.173271 
L 304.037131 85.405859 
L 304.673939 88.173271 
L 305.310747 85.405859 
L 319.320527 85.405859 
L 319.957336 82.638447 
L 320.594144 82.638447 
L 321.230952 85.405859 
L 321.86776 85.405859 
L 322.504568 82.638447 
L 323.141377 82.638447 
L 323.778185 85.405859 
L 324.414993 82.638447 
L 335.240732 82.638447 
L 335.877541 79.871035 
L 336.514349 85.405859 
L 337.151157 88.173271 
L 337.787965 88.173271 
L 338.424773 93.708094 
L 339.69839 99.242918 
L 340.335198 104.777742 
L 340.972006 104.777742 
L 341.608814 110.312566 
L 342.245623 110.312566 
L 342.882431 115.847389 
L 344.156047 121.382213 
L 344.792855 121.382213 
L 345.429664 126.917037 
L 346.066472 126.917037 
L 352.434554 154.591155 
L 353.071362 154.591155 
L 356.255403 168.428215 
L 356.892211 168.428215 
L 357.529019 173.963038 
L 358.165828 173.963038 
L 358.802636 176.73045 
L 359.439444 176.73045 
L 362.623485 190.56751 
L 363.260293 190.56751 
L 365.807526 201.637157 
L 366.444334 201.637157 
L 367.717951 207.171981 
L 368.354759 207.171981 
L 368.991567 209.939393 
L 369.628375 209.939393 
L 371.5388 218.241628 
L 372.175608 218.241628 
L 372.812416 221.00904 
L 373.449224 221.00904 
L 374.722841 226.543864 
L 375.359649 226.543864 
L 376.633265 232.078687 
L 377.270074 232.078687 
L 377.906882 234.846099 
L 378.54369 234.846099 
L 379.180498 237.613511 
L 379.817306 237.613511 
L 380.454115 240.380923 
L 381.090923 240.380923 
L 381.727731 243.148335 
L 382.364539 243.148335 
L 383.001347 245.915747 
L 383.638156 245.915747 
L 384.274964 248.683159 
L 384.911772 248.683159 
L 386.185388 254.217982 
L 387.459005 254.217982 
L 388.095813 256.985394 
L 388.732621 256.985394 
L 389.369429 259.752806 
L 390.006238 259.752806 
L 391.279854 265.28763 
L 392.55347 265.28763 
L 393.190279 268.055042 
L 393.827087 268.055042 
L 394.463895 270.822454 
L 395.100703 270.822454 
L 395.737511 273.589865 
L 396.37432 273.589865 
L 397.011128 276.357277 
L 398.284744 276.357277 
L 398.921552 279.124689 
L 399.558361 279.124689 
L 400.195169 281.892101 
L 400.831977 281.892101 
L 401.468785 284.659513 
L 402.105593 284.659513 
L 402.742402 287.426925 
L 404.652826 287.426925 
L 405.926443 292.961748 
L 407.200059 292.961748 
L 407.836867 295.72916 
L 408.473675 295.72916 
L 409.110484 298.496572 
L 411.020908 298.496572 
L 411.657716 301.263984 
L 412.294525 301.263984 
L 412.931333 304.031396 
L 414.204949 304.031396 
L 414.841757 306.798808 
L 415.478566 306.798808 
L 416.115374 309.56622 
L 417.38899 309.56622 
L 418.025798 312.333631 
L 419.936223 312.333631 
L 420.573031 315.101043 
L 421.846648 315.101043 
L 422.483456 317.868455 
L 423.757072 317.868455 
L 424.39388 320.635867 
L 426.304305 320.635867 
L 426.941113 323.403279 
L 427.577921 323.403279 
L 428.21473 326.170691 
L 430.125154 326.170691 
L 430.761962 328.938103 
L 432.035579 328.938103 
L 432.672387 331.705514 
L 433.309195 331.705514 
L 433.946003 334.472926 
L 437.766853 334.472926 
L 438.403661 337.240338 
L 439.677277 337.240338 
L 440.314085 340.00775 
L 441.587702 340.00775 
L 442.22451 342.775162 
L 444.771743 342.775162 
L 445.408551 345.542574 
L 447.318976 345.542574 
L 447.955784 348.309986 
L 449.2294 348.309986 
L 449.866208 351.077398 
L 452.413441 351.077398 
L 453.050249 353.844809 
L 455.597482 353.844809 
L 456.23429 356.612221 
L 456.871099 353.844809 
L 457.507907 356.612221 
L 458.781523 356.612221 
L 459.418331 359.379633 
L 461.965564 359.379633 
L 462.602372 362.147045 
L 465.149605 362.147045 
L 465.786413 364.914457 
L 468.333646 364.914457 
L 468.970454 367.681869 
L 472.791304 367.681869 
L 473.428112 370.449281 
L 475.975345 370.449281 
L 476.612153 373.216692 
L 479.159386 373.216692 
L 479.796194 375.984104 
L 480.433002 373.216692 
L 481.06981 375.984104 
L 482.980235 375.984104 
L 483.617043 378.751516 
L 489.985125 378.751516 
L 490.621933 381.518928 
L 495.079591 381.518928 
L 495.716399 384.28634 
L 498.90044 384.28634 
L 499.537248 387.053752 
L 505.268522 387.053752 
L 505.90533 389.821164 
L 512.273412 389.821164 
L 512.91022 392.588575 
L 518.004686 392.588575 
L 518.641494 395.355987 
L 519.278302 392.588575 
L 519.91511 395.355987 
L 526.920001 395.355987 
L 527.556809 398.123399 
L 533.288083 398.123399 
L 533.924891 400.890811 
L 544.113822 400.890811 
L 544.75063 403.658223 
L 554.939561 403.658223 
L 555.57637 406.425635 
L 556.213178 403.658223 
L 556.849986 406.425635 
L 567.038917 406.425635 
L 567.675725 409.193047 
L 581.048698 409.193047 
L 581.685506 411.960458 
L 582.322314 409.193047 
L 584.232739 409.193047 
L 584.869547 411.960458 
L 585.506355 411.960458 
L 586.143163 409.193047 
L 586.779971 411.960458 
L 599.516135 411.960458 
L 600.152944 414.72787 
L 600.789752 411.960458 
L 605.884217 411.960458 
L 606.521026 414.72787 
L 607.794642 414.72787 
L 608.43145 411.960458 
L 609.068258 414.72787 
L 626.26208 414.72787 
L 626.898888 417.495282 
L 627.535696 414.72787 
L 628.809313 414.72787 
L 629.446121 417.495282 
L 662.560147 417.495282 
L 663.196955 420.262694 
L 663.196955 420.262694 
" style="fill:none;stroke:#008000;stroke-linecap:square;stroke-width:1.5;"/>
    <defs>
     <path d="M 0 1.5 
C 0.397805 1.5 0.77937 1.341951 1.06066 1.06066 
C 1.341951 0.77937 1.5 0.397805 1.5 0 
C 1.5 -0.397805 1.341951 -0.77937 1.06066 -1.06066 
C 0.77937 -1.341951 0.397805 -1.5 0 -1.5 
C -0.397805 -1.5 -0.77937 -1.341951 -1.06066 -1.06066 
C -1.341951 -0.77937 -1.5 -0.397805 -1.5 0 
C -1.5 0.397805 -1.341951 0.77937 -1.06066 1.06066 
C -0.77937 1.341951 -0.397805 1.5 0 1.5 
z
" id="m1c7c7ca36a" style="stroke:#008000;"/>
    </defs>
    <g clip-path="url(#pef590fdc2e)">
     <use style="fill:#008000;stroke:#008000;" x="91.98" xlink:href="#m1c7c7ca36a" y="420.262694"/>
     <use style="fill:#008000;stroke:#008000;" x="98.348082" xlink:href="#m1c7c7ca36a" y="384.28634"/>
     <use style="fill:#008000;stroke:#008000;" x="104.716164" xlink:href="#m1c7c7ca36a" y="353.844809"/>
     <use style="fill:#008000;stroke:#008000;" x="111.084246" xlink:href="#m1c7c7ca36a" y="326.170691"/>
     <use style="fill:#008000;stroke:#008000;" x="117.452328" xlink:href="#m1c7c7ca36a" y="301.263984"/>
     <use style="fill:#008000;stroke:#008000;" x="123.82041" xlink:href="#m1c7c7ca36a" y="279.124689"/>
     <use style="fill:#008000;stroke:#008000;" x="130.188492" xlink:href="#m1c7c7ca36a" y="256.985394"/>
     <use style="fill:#008000;stroke:#008000;" x="136.556574" xlink:href="#m1c7c7ca36a" y="240.380923"/>
     <use style="fill:#008000;stroke:#008000;" x="142.924656" xlink:href="#m1c7c7ca36a" y="223.776452"/>
     <use style="fill:#008000;stroke:#008000;" x="149.292738" xlink:href="#m1c7c7ca36a" y="209.939393"/>
     <use style="fill:#008000;stroke:#008000;" x="155.66082" xlink:href="#m1c7c7ca36a" y="196.102333"/>
     <use style="fill:#008000;stroke:#008000;" x="162.028902" xlink:href="#m1c7c7ca36a" y="185.032686"/>
     <use style="fill:#008000;stroke:#008000;" x="168.396984" xlink:href="#m1c7c7ca36a" y="173.963038"/>
     <use style="fill:#008000;stroke:#008000;" x="174.765066" xlink:href="#m1c7c7ca36a" y="162.893391"/>
     <use style="fill:#008000;stroke:#008000;" x="181.133148" xlink:href="#m1c7c7ca36a" y="154.591155"/>
     <use style="fill:#008000;stroke:#008000;" x="187.50123" xlink:href="#m1c7c7ca36a" y="149.056332"/>
     <use style="fill:#008000;stroke:#008000;" x="193.869312" xlink:href="#m1c7c7ca36a" y="140.754096"/>
     <use style="fill:#008000;stroke:#008000;" x="200.237394" xlink:href="#m1c7c7ca36a" y="135.219272"/>
     <use style="fill:#008000;stroke:#008000;" x="206.605476" xlink:href="#m1c7c7ca36a" y="129.684449"/>
     <use style="fill:#008000;stroke:#008000;" x="212.973558" xlink:href="#m1c7c7ca36a" y="121.382213"/>
     <use style="fill:#008000;stroke:#008000;" x="219.34164" xlink:href="#m1c7c7ca36a" y="118.614801"/>
     <use style="fill:#008000;stroke:#008000;" x="225.709722" xlink:href="#m1c7c7ca36a" y="113.079977"/>
     <use style="fill:#008000;stroke:#008000;" x="232.077804" xlink:href="#m1c7c7ca36a" y="110.312566"/>
     <use style="fill:#008000;stroke:#008000;" x="238.445886" xlink:href="#m1c7c7ca36a" y="107.545154"/>
     <use style="fill:#008000;stroke:#008000;" x="244.813968" xlink:href="#m1c7c7ca36a" y="104.777742"/>
     <use style="fill:#008000;stroke:#008000;" x="251.18205" xlink:href="#m1c7c7ca36a" y="102.01033"/>
     <use style="fill:#008000;stroke:#008000;" x="257.550132" xlink:href="#m1c7c7ca36a" y="99.242918"/>
     <use style="fill:#008000;stroke:#008000;" x="263.918214" xlink:href="#m1c7c7ca36a" y="96.475506"/>
     <use style="fill:#008000;stroke:#008000;" x="270.286296" xlink:href="#m1c7c7ca36a" y="93.708094"/>
     <use style="fill:#008000;stroke:#008000;" x="276.654378" xlink:href="#m1c7c7ca36a" y="93.708094"/>
     <use style="fill:#008000;stroke:#008000;" x="283.02246" xlink:href="#m1c7c7ca36a" y="90.940682"/>
     <use style="fill:#008000;stroke:#008000;" x="289.390542" xlink:href="#m1c7c7ca36a" y="90.940682"/>
     <use style="fill:#008000;stroke:#008000;" x="295.758624" xlink:href="#m1c7c7ca36a" y="88.173271"/>
     <use style="fill:#008000;stroke:#008000;" x="302.126706" xlink:href="#m1c7c7ca36a" y="88.173271"/>
     <use style="fill:#008000;stroke:#008000;" x="308.494788" xlink:href="#m1c7c7ca36a" y="85.405859"/>
     <use style="fill:#008000;stroke:#008000;" x="314.86287" xlink:href="#m1c7c7ca36a" y="85.405859"/>
     <use style="fill:#008000;stroke:#008000;" x="321.230952" xlink:href="#m1c7c7ca36a" y="85.405859"/>
     <use style="fill:#008000;stroke:#008000;" x="327.599034" xlink:href="#m1c7c7ca36a" y="82.638447"/>
     <use style="fill:#008000;stroke:#008000;" x="333.967116" xlink:href="#m1c7c7ca36a" y="82.638447"/>
     <use style="fill:#008000;stroke:#008000;" x="340.335198" xlink:href="#m1c7c7ca36a" y="104.777742"/>
     <use style="fill:#008000;stroke:#008000;" x="346.70328" xlink:href="#m1c7c7ca36a" y="129.684449"/>
     <use style="fill:#008000;stroke:#008000;" x="353.071362" xlink:href="#m1c7c7ca36a" y="154.591155"/>
     <use style="fill:#008000;stroke:#008000;" x="359.439444" xlink:href="#m1c7c7ca36a" y="176.73045"/>
     <use style="fill:#008000;stroke:#008000;" x="365.807526" xlink:href="#m1c7c7ca36a" y="201.637157"/>
     <use style="fill:#008000;stroke:#008000;" x="372.175608" xlink:href="#m1c7c7ca36a" y="218.241628"/>
     <use style="fill:#008000;stroke:#008000;" x="378.54369" xlink:href="#m1c7c7ca36a" y="234.846099"/>
     <use style="fill:#008000;stroke:#008000;" x="384.911772" xlink:href="#m1c7c7ca36a" y="248.683159"/>
     <use style="fill:#008000;stroke:#008000;" x="391.279854" xlink:href="#m1c7c7ca36a" y="265.28763"/>
     <use style="fill:#008000;stroke:#008000;" x="397.647936" xlink:href="#m1c7c7ca36a" y="276.357277"/>
     <use style="fill:#008000;stroke:#008000;" x="404.016018" xlink:href="#m1c7c7ca36a" y="287.426925"/>
     <use style="fill:#008000;stroke:#008000;" x="410.3841" xlink:href="#m1c7c7ca36a" y="298.496572"/>
     <use style="fill:#008000;stroke:#008000;" x="416.752182" xlink:href="#m1c7c7ca36a" y="309.56622"/>
     <use style="fill:#008000;stroke:#008000;" x="423.120264" xlink:href="#m1c7c7ca36a" y="317.868455"/>
     <use style="fill:#008000;stroke:#008000;" x="429.488346" xlink:href="#m1c7c7ca36a" y="326.170691"/>
     <use style="fill:#008000;stroke:#008000;" x="435.856428" xlink:href="#m1c7c7ca36a" y="334.472926"/>
     <use style="fill:#008000;stroke:#008000;" x="442.22451" xlink:href="#m1c7c7ca36a" y="342.775162"/>
     <use style="fill:#008000;stroke:#008000;" x="448.592592" xlink:href="#m1c7c7ca36a" y="348.309986"/>
     <use style="fill:#008000;stroke:#008000;" x="454.960674" xlink:href="#m1c7c7ca36a" y="353.844809"/>
     <use style="fill:#008000;stroke:#008000;" x="461.328756" xlink:href="#m1c7c7ca36a" y="359.379633"/>
     <use style="fill:#008000;stroke:#008000;" x="467.696838" xlink:href="#m1c7c7ca36a" y="364.914457"/>
     <use style="fill:#008000;stroke:#008000;" x="474.06492" xlink:href="#m1c7c7ca36a" y="370.449281"/>
     <use style="fill:#008000;stroke:#008000;" x="480.433002" xlink:href="#m1c7c7ca36a" y="373.216692"/>
     <use style="fill:#008000;stroke:#008000;" x="486.801084" xlink:href="#m1c7c7ca36a" y="378.751516"/>
     <use style="fill:#008000;stroke:#008000;" x="493.169166" xlink:href="#m1c7c7ca36a" y="381.518928"/>
     <use style="fill:#008000;stroke:#008000;" x="499.537248" xlink:href="#m1c7c7ca36a" y="387.053752"/>
     <use style="fill:#008000;stroke:#008000;" x="505.90533" xlink:href="#m1c7c7ca36a" y="389.821164"/>
     <use style="fill:#008000;stroke:#008000;" x="512.273412" xlink:href="#m1c7c7ca36a" y="389.821164"/>
     <use style="fill:#008000;stroke:#008000;" x="518.641494" xlink:href="#m1c7c7ca36a" y="395.355987"/>
     <use style="fill:#008000;stroke:#008000;" x="525.009576" xlink:href="#m1c7c7ca36a" y="395.355987"/>
     <use style="fill:#008000;stroke:#008000;" x="531.377658" xlink:href="#m1c7c7ca36a" y="398.123399"/>
     <use style="fill:#008000;stroke:#008000;" x="537.74574" xlink:href="#m1c7c7ca36a" y="400.890811"/>
     <use style="fill:#008000;stroke:#008000;" x="544.113822" xlink:href="#m1c7c7ca36a" y="400.890811"/>
     <use style="fill:#008000;stroke:#008000;" x="550.481904" xlink:href="#m1c7c7ca36a" y="403.658223"/>
     <use style="fill:#008000;stroke:#008000;" x="556.849986" xlink:href="#m1c7c7ca36a" y="406.425635"/>
     <use style="fill:#008000;stroke:#008000;" x="563.218068" xlink:href="#m1c7c7ca36a" y="406.425635"/>
     <use style="fill:#008000;stroke:#008000;" x="569.58615" xlink:href="#m1c7c7ca36a" y="409.193047"/>
     <use style="fill:#008000;stroke:#008000;" x="575.954232" xlink:href="#m1c7c7ca36a" y="409.193047"/>
     <use style="fill:#008000;stroke:#008000;" x="582.322314" xlink:href="#m1c7c7ca36a" y="409.193047"/>
     <use style="fill:#008000;stroke:#008000;" x="588.690396" xlink:href="#m1c7c7ca36a" y="411.960458"/>
     <use style="fill:#008000;stroke:#008000;" x="595.058478" xlink:href="#m1c7c7ca36a" y="411.960458"/>
     <use style="fill:#008000;stroke:#008000;" x="601.42656" xlink:href="#m1c7c7ca36a" y="411.960458"/>
     <use style="fill:#008000;stroke:#008000;" x="607.794642" xlink:href="#m1c7c7ca36a" y="414.72787"/>
     <use style="fill:#008000;stroke:#008000;" x="614.162724" xlink:href="#m1c7c7ca36a" y="414.72787"/>
     <use style="fill:#008000;stroke:#008000;" x="620.530806" xlink:href="#m1c7c7ca36a" y="414.72787"/>
     <use style="fill:#008000;stroke:#008000;" x="626.898888" xlink:href="#m1c7c7ca36a" y="417.495282"/>
     <use style="fill:#008000;stroke:#008000;" x="633.26697" xlink:href="#m1c7c7ca36a" y="417.495282"/>
     <use style="fill:#008000;stroke:#008000;" x="639.635052" xlink:href="#m1c7c7ca36a" y="417.495282"/>
     <use style="fill:#008000;stroke:#008000;" x="646.003134" xlink:href="#m1c7c7ca36a" y="417.495282"/>
     <use style="fill:#008000;stroke:#008000;" x="652.371216" xlink:href="#m1c7c7ca36a" y="417.495282"/>
     <use style="fill:#008000;stroke:#008000;" x="658.739298" xlink:href="#m1c7c7ca36a" y="417.495282"/>
    </g>
   </g>
   <g id="patch_3">
    <path d="M 91.98 421.6464 
L 91.98 56.8512 
" style="fill:none;stroke:#000000;stroke-linecap:square;stroke-linejoin:miter;stroke-width:0.8;"/>
   </g>
   <g id="patch_4">
    <path d="M 662.256 421.6464 
L 662.256 56.8512 
" style="fill:none;stroke:#000000;stroke-linecap:square;stroke-linejoin:miter;stroke-width:0.8;"/>
   </g>
   <g id="patch_5">
    <path d="M 91.98 421.6464 
L 662.256 421.6464 
" style="fill:none;stroke:#000000;stroke-linecap:square;stroke-linejoin:miter;stroke-width:0.8;"/>
   </g>
   <g id="patch_6">
    <path d="M 91.98 56.8512 
L 662.256 56.8512 
" style="fill:none;stroke:#000000;stroke-linecap:square;stroke-linejoin:miter;stroke-width:0.8;"/>
   </g>
   <g id="text_16">
    <!-- Время зарядки: 5.1322c  -->
    <g transform="translate(472.164 158.865691)scale(0.1 -0.1)">
     <defs>
      <path d="M 2206 1888 
Q 2594 1813 2809 1584 
Q 3025 1356 3025 1019 
Q 3025 478 2622 193 
Q 2219 -91 1475 -91 
Q 1225 -91 961 -47 
Q 697 -3 416 84 
L 416 619 
Q 638 503 903 445 
Q 1169 388 1459 388 
Q 1931 388 2195 563 
Q 2459 738 2459 1019 
Q 2459 1294 2225 1461 
Q 1991 1628 1563 1628 
L 1100 1628 
L 1100 2103 
L 1584 2103 
Q 1947 2103 2158 2242 
Q 2369 2381 2369 2600 
Q 2369 2800 2151 2944 
Q 1934 3088 1563 3088 
Q 1341 3088 1089 3047 
Q 838 3006 534 2916 
L 534 3438 
Q 841 3513 1106 3550 
Q 1372 3588 1609 3588 
Q 2222 3588 2576 3342 
Q 2931 3097 2931 2656 
Q 2931 2366 2743 2164 
Q 2556 1963 2206 1888 
z
" id="DejaVuSans-437" transform="scale(0.015625)"/>
      <path d="M 1384 459 
L 3053 459 
L 3053 3041 
L 1844 3041 
L 1844 2603 
Q 1844 1316 1475 628 
L 1384 459 
z
M 550 459 
Q 834 584 959 850 
Q 1266 1509 1266 2838 
L 1266 3500 
L 3631 3500 
L 3631 459 
L 4091 459 
L 4091 -884 
L 3631 -884 
L 3631 0 
L 794 0 
L 794 -884 
L 334 -884 
L 334 459 
L 550 459 
z
" id="DejaVuSans-434" transform="scale(0.015625)"/>
      <path d="M 581 3500 
L 1153 3500 
L 1153 1856 
L 2775 3500 
L 3481 3500 
L 2144 2147 
L 3653 0 
L 3009 0 
L 1769 1766 
L 1153 1141 
L 1153 0 
L 581 0 
L 581 3500 
z
" id="DejaVuSans-43a" transform="scale(0.015625)"/>
      <path d="M 750 794 
L 1409 794 
L 1409 0 
L 750 0 
L 750 794 
z
M 750 3309 
L 1409 3309 
L 1409 2516 
L 750 2516 
L 750 3309 
z
" id="DejaVuSans-3a" transform="scale(0.015625)"/>
      <path d="M 2597 2516 
Q 3050 2419 3304 2112 
Q 3559 1806 3559 1356 
Q 3559 666 3084 287 
Q 2609 -91 1734 -91 
Q 1441 -91 1130 -33 
Q 819 25 488 141 
L 488 750 
Q 750 597 1062 519 
Q 1375 441 1716 441 
Q 2309 441 2620 675 
Q 2931 909 2931 1356 
Q 2931 1769 2642 2001 
Q 2353 2234 1838 2234 
L 1294 2234 
L 1294 2753 
L 1863 2753 
Q 2328 2753 2575 2939 
Q 2822 3125 2822 3475 
Q 2822 3834 2567 4026 
Q 2313 4219 1838 4219 
Q 1578 4219 1281 4162 
Q 984 4106 628 3988 
L 628 4550 
Q 988 4650 1302 4700 
Q 1616 4750 1894 4750 
Q 2613 4750 3031 4423 
Q 3450 4097 3450 3541 
Q 3450 3153 3228 2886 
Q 3006 2619 2597 2516 
z
" id="DejaVuSans-33" transform="scale(0.015625)"/>
      <path d="M 3122 3366 
L 3122 2828 
Q 2878 2963 2633 3030 
Q 2388 3097 2138 3097 
Q 1578 3097 1268 2742 
Q 959 2388 959 1747 
Q 959 1106 1268 751 
Q 1578 397 2138 397 
Q 2388 397 2633 464 
Q 2878 531 3122 666 
L 3122 134 
Q 2881 22 2623 -34 
Q 2366 -91 2075 -91 
Q 1284 -91 818 406 
Q 353 903 353 1747 
Q 353 2603 823 3093 
Q 1294 3584 2113 3584 
Q 2378 3584 2631 3529 
Q 2884 3475 3122 3366 
z
" id="DejaVuSans-63" transform="scale(0.015625)"/>
     </defs>
     <use xlink:href="#DejaVuSans-412"/>
     <use x="68.603516" xlink:href="#DejaVuSans-440"/>
     <use x="132.080078" xlink:href="#DejaVuSans-435"/>
     <use x="193.603516" xlink:href="#DejaVuSans-43c"/>
     <use x="269.042969" xlink:href="#DejaVuSans-44f"/>
     <use x="329.199219" xlink:href="#DejaVuSans-20"/>
     <use x="360.986328" xlink:href="#DejaVuSans-437"/>
     <use x="414.160156" xlink:href="#DejaVuSans-430"/>
     <use x="475.439453" xlink:href="#DejaVuSans-440"/>
     <use x="538.916016" xlink:href="#DejaVuSans-44f"/>
     <use x="599.072266" xlink:href="#DejaVuSans-434"/>
     <use x="668.212891" xlink:href="#DejaVuSans-43a"/>
     <use x="728.613281" xlink:href="#DejaVuSans-438"/>
     <use x="793.603516" xlink:href="#DejaVuSans-3a"/>
     <use x="827.294922" xlink:href="#DejaVuSans-20"/>
     <use x="859.082031" xlink:href="#DejaVuSans-35"/>
     <use x="922.705078" xlink:href="#DejaVuSans-2e"/>
     <use x="954.492188" xlink:href="#DejaVuSans-31"/>
     <use x="1018.115234" xlink:href="#DejaVuSans-33"/>
     <use x="1081.738281" xlink:href="#DejaVuSans-32"/>
     <use x="1145.361328" xlink:href="#DejaVuSans-32"/>
     <use x="1208.984375" xlink:href="#DejaVuSans-63"/>
     <use x="1263.964844" xlink:href="#DejaVuSans-20"/>
    </g>
    <!-- Время разрядки: 6.8876 -->
    <g transform="translate(472.164 170.063503)scale(0.1 -0.1)">
     <defs>
      <path d="M 525 4666 
L 3525 4666 
L 3525 4397 
L 1831 0 
L 1172 0 
L 2766 4134 
L 525 4134 
L 525 4666 
z
" id="DejaVuSans-37" transform="scale(0.015625)"/>
     </defs>
     <use xlink:href="#DejaVuSans-412"/>
     <use x="68.603516" xlink:href="#DejaVuSans-440"/>
     <use x="132.080078" xlink:href="#DejaVuSans-435"/>
     <use x="193.603516" xlink:href="#DejaVuSans-43c"/>
     <use x="269.042969" xlink:href="#DejaVuSans-44f"/>
     <use x="329.199219" xlink:href="#DejaVuSans-20"/>
     <use x="360.986328" xlink:href="#DejaVuSans-440"/>
     <use x="424.462891" xlink:href="#DejaVuSans-430"/>
     <use x="485.742188" xlink:href="#DejaVuSans-437"/>
     <use x="538.916016" xlink:href="#DejaVuSans-440"/>
     <use x="602.392578" xlink:href="#DejaVuSans-44f"/>
     <use x="662.548828" xlink:href="#DejaVuSans-434"/>
     <use x="731.689453" xlink:href="#DejaVuSans-43a"/>
     <use x="792.089844" xlink:href="#DejaVuSans-438"/>
     <use x="857.080078" xlink:href="#DejaVuSans-3a"/>
     <use x="890.771484" xlink:href="#DejaVuSans-20"/>
     <use x="922.558594" xlink:href="#DejaVuSans-36"/>
     <use x="986.181641" xlink:href="#DejaVuSans-2e"/>
     <use x="1017.96875" xlink:href="#DejaVuSans-38"/>
     <use x="1081.591797" xlink:href="#DejaVuSans-38"/>
     <use x="1145.214844" xlink:href="#DejaVuSans-37"/>
     <use x="1208.837891" xlink:href="#DejaVuSans-36"/>
    </g>
   </g>
   <g id="text_17">
    <!-- Процесс заряда и разряда конденсатора в RC-цепочке -->
    <g transform="translate(91.98 50.8512)scale(0.12 -0.12)">
     <defs>
      <path d="M 4184 4666 
L 4184 0 
L 3553 0 
L 3553 4134 
L 1259 4134 
L 1259 0 
L 628 0 
L 628 4666 
L 4184 4666 
z
" id="DejaVuSans-41f" transform="scale(0.015625)"/>
      <path d="M 1959 3097 
Q 1497 3097 1228 2736 
Q 959 2375 959 1747 
Q 959 1119 1226 758 
Q 1494 397 1959 397 
Q 2419 397 2687 759 
Q 2956 1122 2956 1747 
Q 2956 2369 2687 2733 
Q 2419 3097 1959 3097 
z
M 1959 3584 
Q 2709 3584 3137 3096 
Q 3566 2609 3566 1747 
Q 3566 888 3137 398 
Q 2709 -91 1959 -91 
Q 1206 -91 779 398 
Q 353 888 353 1747 
Q 353 2609 779 3096 
Q 1206 3584 1959 3584 
z
" id="DejaVuSans-43e" transform="scale(0.015625)"/>
      <path d="M 3603 0 
L 581 0 
L 581 3500 
L 1159 3500 
L 1159 459 
L 3025 459 
L 3025 3500 
L 3603 3500 
L 3603 459 
L 4063 459 
L 4063 -884 
L 3603 -884 
L 3603 0 
z
" id="DejaVuSans-446" transform="scale(0.015625)"/>
      <path d="M 188 3500 
L 3541 3500 
L 3541 3041 
L 2147 3041 
L 2147 0 
L 1581 0 
L 1581 3041 
L 188 3041 
L 188 3500 
z
" id="DejaVuSans-442" transform="scale(0.015625)"/>
      <path d="M 1156 1613 
L 1156 459 
L 1975 459 
Q 2369 459 2575 607 
Q 2781 756 2781 1038 
Q 2781 1319 2575 1466 
Q 2369 1613 1975 1613 
L 1156 1613 
z
M 1156 3041 
L 1156 2072 
L 1913 2072 
Q 2238 2072 2444 2201 
Q 2650 2331 2650 2563 
Q 2650 2794 2444 2917 
Q 2238 3041 1913 3041 
L 1156 3041 
z
M 581 3500 
L 1950 3500 
Q 2566 3500 2897 3275 
Q 3228 3050 3228 2634 
Q 3228 2313 3059 2123 
Q 2891 1934 2559 1888 
Q 2956 1813 3175 1575 
Q 3394 1338 3394 981 
Q 3394 513 3033 256 
Q 2672 0 2003 0 
L 581 0 
L 581 3500 
z
" id="DejaVuSans-432" transform="scale(0.015625)"/>
      <path d="M 2841 2188 
Q 3044 2119 3236 1894 
Q 3428 1669 3622 1275 
L 4263 0 
L 3584 0 
L 2988 1197 
Q 2756 1666 2539 1819 
Q 2322 1972 1947 1972 
L 1259 1972 
L 1259 0 
L 628 0 
L 628 4666 
L 2053 4666 
Q 2853 4666 3247 4331 
Q 3641 3997 3641 3322 
Q 3641 2881 3436 2590 
Q 3231 2300 2841 2188 
z
M 1259 4147 
L 1259 2491 
L 2053 2491 
Q 2509 2491 2742 2702 
Q 2975 2913 2975 3322 
Q 2975 3731 2742 3939 
Q 2509 4147 2053 4147 
L 1259 4147 
z
" id="DejaVuSans-52" transform="scale(0.015625)"/>
      <path d="M 4122 4306 
L 4122 3641 
Q 3803 3938 3442 4084 
Q 3081 4231 2675 4231 
Q 1875 4231 1450 3742 
Q 1025 3253 1025 2328 
Q 1025 1406 1450 917 
Q 1875 428 2675 428 
Q 3081 428 3442 575 
Q 3803 722 4122 1019 
L 4122 359 
Q 3791 134 3420 21 
Q 3050 -91 2638 -91 
Q 1578 -91 968 557 
Q 359 1206 359 2328 
Q 359 3453 968 4101 
Q 1578 4750 2638 4750 
Q 3056 4750 3426 4639 
Q 3797 4528 4122 4306 
z
" id="DejaVuSans-43" transform="scale(0.015625)"/>
      <path d="M 313 2009 
L 1997 2009 
L 1997 1497 
L 313 1497 
L 313 2009 
z
" id="DejaVuSans-2d" transform="scale(0.015625)"/>
      <path d="M 2625 0 
L 2625 1472 
L 1553 1472 
Q 1075 1472 756 1769 
Q 469 2038 469 2613 
L 469 3500 
L 1044 3500 
L 1044 2666 
Q 1044 2300 1206 2116 
Q 1372 1931 1697 1931 
L 2625 1931 
L 2625 3500 
L 3200 3500 
L 3200 0 
L 2625 0 
z
" id="DejaVuSans-447" transform="scale(0.015625)"/>
     </defs>
     <use xlink:href="#DejaVuSans-41f"/>
     <use x="75.195312" xlink:href="#DejaVuSans-440"/>
     <use x="138.671875" xlink:href="#DejaVuSans-43e"/>
     <use x="199.853516" xlink:href="#DejaVuSans-446"/>
     <use x="267.919922" xlink:href="#DejaVuSans-435"/>
     <use x="329.443359" xlink:href="#DejaVuSans-441"/>
     <use x="384.423828" xlink:href="#DejaVuSans-441"/>
     <use x="439.404297" xlink:href="#DejaVuSans-20"/>
     <use x="471.191406" xlink:href="#DejaVuSans-437"/>
     <use x="524.365234" xlink:href="#DejaVuSans-430"/>
     <use x="585.644531" xlink:href="#DejaVuSans-440"/>
     <use x="649.121094" xlink:href="#DejaVuSans-44f"/>
     <use x="709.277344" xlink:href="#DejaVuSans-434"/>
     <use x="778.417969" xlink:href="#DejaVuSans-430"/>
     <use x="839.697266" xlink:href="#DejaVuSans-20"/>
     <use x="871.484375" xlink:href="#DejaVuSans-438"/>
     <use x="936.474609" xlink:href="#DejaVuSans-20"/>
     <use x="968.261719" xlink:href="#DejaVuSans-440"/>
     <use x="1031.738281" xlink:href="#DejaVuSans-430"/>
     <use x="1093.017578" xlink:href="#DejaVuSans-437"/>
     <use x="1146.191406" xlink:href="#DejaVuSans-440"/>
     <use x="1209.667969" xlink:href="#DejaVuSans-44f"/>
     <use x="1269.824219" xlink:href="#DejaVuSans-434"/>
     <use x="1338.964844" xlink:href="#DejaVuSans-430"/>
     <use x="1400.244141" xlink:href="#DejaVuSans-20"/>
     <use x="1432.03125" xlink:href="#DejaVuSans-43a"/>
     <use x="1492.431641" xlink:href="#DejaVuSans-43e"/>
     <use x="1553.613281" xlink:href="#DejaVuSans-43d"/>
     <use x="1618.994141" xlink:href="#DejaVuSans-434"/>
     <use x="1688.134766" xlink:href="#DejaVuSans-435"/>
     <use x="1749.658203" xlink:href="#DejaVuSans-43d"/>
     <use x="1815.039062" xlink:href="#DejaVuSans-441"/>
     <use x="1870.019531" xlink:href="#DejaVuSans-430"/>
     <use x="1931.298828" xlink:href="#DejaVuSans-442"/>
     <use x="1989.550781" xlink:href="#DejaVuSans-43e"/>
     <use x="2050.732422" xlink:href="#DejaVuSans-440"/>
     <use x="2114.208984" xlink:href="#DejaVuSans-430"/>
     <use x="2175.488281" xlink:href="#DejaVuSans-20"/>
     <use x="2207.275391" xlink:href="#DejaVuSans-432"/>
     <use x="2266.210938" xlink:href="#DejaVuSans-20"/>
     <use x="2297.998047" xlink:href="#DejaVuSans-52"/>
     <use x="2362.480469" xlink:href="#DejaVuSans-43"/>
     <use x="2432.304688" xlink:href="#DejaVuSans-2d"/>
     <use x="2468.388672" xlink:href="#DejaVuSans-446"/>
     <use x="2536.455078" xlink:href="#DejaVuSans-435"/>
     <use x="2597.978516" xlink:href="#DejaVuSans-43f"/>
     <use x="2663.359375" xlink:href="#DejaVuSans-43e"/>
     <use x="2724.541016" xlink:href="#DejaVuSans-447"/>
     <use x="2783.623047" xlink:href="#DejaVuSans-43a"/>
     <use x="2844.023438" xlink:href="#DejaVuSans-435"/>
    </g>
   </g>
   <g id="legend_1">
    <g id="patch_7">
     <path d="M 604.691938 79.529325 
L 655.256 79.529325 
Q 657.256 79.529325 657.256 77.529325 
L 657.256 63.8512 
Q 657.256 61.8512 655.256 61.8512 
L 604.691938 61.8512 
Q 602.691938 61.8512 602.691938 63.8512 
L 602.691938 77.529325 
Q 602.691938 79.529325 604.691938 79.529325 
z
" style="fill:#ffffff;opacity:0.8;stroke:#cccccc;stroke-linejoin:miter;"/>
    </g>
    <g id="line2d_110">
     <path d="M 606.691938 69.949637 
L 626.691938 69.949637 
" style="fill:none;stroke:#008000;stroke-linecap:square;stroke-width:1.5;"/>
    </g>
    <g id="line2d_111">
     <g>
      <use style="fill:#008000;stroke:#008000;" x="616.691938" xlink:href="#m1c7c7ca36a" y="69.949637"/>
     </g>
    </g>
    <g id="text_18">
     <!-- V(t) -->
     <g transform="translate(634.691938 73.449637)scale(0.1 -0.1)">
      <defs>
       <path d="M 1831 0 
L 50 4666 
L 709 4666 
L 2188 738 
L 3669 4666 
L 4325 4666 
L 2547 0 
L 1831 0 
z
" id="DejaVuSans-56" transform="scale(0.015625)"/>
       <path d="M 1984 4856 
Q 1566 4138 1362 3434 
Q 1159 2731 1159 2009 
Q 1159 1288 1364 580 
Q 1569 -128 1984 -844 
L 1484 -844 
Q 1016 -109 783 600 
Q 550 1309 550 2009 
Q 550 2706 781 3412 
Q 1013 4119 1484 4856 
L 1984 4856 
z
" id="DejaVuSans-28" transform="scale(0.015625)"/>
       <path d="M 1172 4494 
L 1172 3500 
L 2356 3500 
L 2356 3053 
L 1172 3053 
L 1172 1153 
Q 1172 725 1289 603 
Q 1406 481 1766 481 
L 2356 481 
L 2356 0 
L 1766 0 
Q 1100 0 847 248 
Q 594 497 594 1153 
L 594 3053 
L 172 3053 
L 172 3500 
L 594 3500 
L 594 4494 
L 1172 4494 
z
" id="DejaVuSans-74" transform="scale(0.015625)"/>
       <path d="M 513 4856 
L 1013 4856 
Q 1481 4119 1714 3412 
Q 1947 2706 1947 2009 
Q 1947 1309 1714 600 
Q 1481 -109 1013 -844 
L 513 -844 
Q 928 -128 1133 580 
Q 1338 1288 1338 2009 
Q 1338 2731 1133 3434 
Q 928 4138 513 4856 
z
" id="DejaVuSans-29" transform="scale(0.015625)"/>
      </defs>
      <use xlink:href="#DejaVuSans-56"/>
      <use x="68.408203" xlink:href="#DejaVuSans-28"/>
      <use x="107.421875" xlink:href="#DejaVuSans-74"/>
      <use x="146.630859" xlink:href="#DejaVuSans-29"/>
     </g>
    </g>
   </g>
  </g>
 </g>
 <defs>
  <clipPath id="pef590fdc2e">
   <rect height="364.7952" width="570.276" x="91.98" y="56.8512"/>
  </clipPath>
 </defs>
</svg>
